<svg xmlns="http://www.w3.org/2000/svg" viewBox="0 0 400 400" width="400" height="400">
  <defs>
    <linearGradient id="circuitGrad" x1="0%" y1="0%" x2="100%" y2="100%">
      <stop offset="0%" style="stop-color:#00A3FF;stop-opacity:1" />
      <stop offset="100%" style="stop-color:#00D4AA;stop-opacity:1" />
    </linearGradient>
    <linearGradient id="bgGrad" x1="0%" y1="0%" x2="100%" y2="100%">
      <stop offset="0%" style="stop-color:#0A0F16;stop-opacity:1" />
      <stop offset="100%" style="stop-color:#111827;stop-opacity:1" />
    </linearGradient>
  </defs>

  <!-- Background -->
  <rect width="400" height="400" rx="40" fill="url(#bgGrad)"/>

  <!-- Circuit board pattern - abstract "D" shape -->
  <g transform="translate(200,160)" stroke="url(#circuitGrad)" fill="none" stroke-width="3" stroke-linecap="round">
    <!-- Main vertical line of D -->
    <line x1="-60" y1="-70" x2="-60" y2="70"/>

    <!-- Top horizontal connector -->
    <line x1="-60" y1="-70" x2="-10" y2="-70"/>

    <!-- Top curve lines -->
    <line x1="-10" y1="-70" x2="30" y2="-55"/>
    <line x1="30" y1="-55" x2="50" y2="-30"/>
    <line x1="50" y1="-30" x2="60" y2="0"/>

    <!-- Bottom curve lines -->
    <line x1="60" y1="0" x2="50" y2="30"/>
    <line x1="50" y1="30" x2="30" y2="55"/>
    <line x1="30" y1="55" x2="-10" y2="70"/>

    <!-- Bottom horizontal connector -->
    <line x1="-10" y1="70" x2="-60" y2="70"/>

    <!-- Internal circuit branches -->
    <line x1="-60" y1="-30" x2="-20" y2="-30"/>
    <line x1="-20" y1="-30" x2="10" y2="-15"/>
    <line x1="10" y1="-15" x2="25" y2="0"/>

    <line x1="-60" y1="0" x2="-10" y2="0"/>
    <line x1="-10" y1="0" x2="25" y2="0"/>

    <line x1="-60" y1="30" x2="-20" y2="30"/>
    <line x1="-20" y1="30" x2="10" y2="15"/>
    <line x1="10" y1="15" x2="25" y2="0"/>

    <!-- Cross connectors -->
    <line x1="-20" y1="-30" x2="-20" y2="30"/>
    <line x1="10" y1="-15" x2="10" y2="15"/>

    <!-- Circuit nodes (dots) -->
    <g fill="url(#circuitGrad)">
      <circle cx="-60" cy="-70" r="5"/>
      <circle cx="-10" cy="-70" r="4"/>
      <circle cx="30" cy="-55" r="4"/>
      <circle cx="50" cy="-30" r="4"/>
      <circle cx="60" cy="0" r="5"/>
      <circle cx="50" cy="30" r="4"/>
      <circle cx="30" cy="55" r="4"/>
      <circle cx="-10" cy="70" r="4"/>
      <circle cx="-60" cy="70" r="5"/>

      <circle cx="-60" cy="-30" r="4"/>
      <circle cx="-20" cy="-30" r="4"/>
      <circle cx="10" cy="-15" r="3.5"/>
      <circle cx="25" cy="0" r="4"/>

      <circle cx="-60" cy="0" r="4"/>
      <circle cx="-10" cy="0" r="3.5"/>

      <circle cx="-60" cy="30" r="4"/>
      <circle cx="-20" cy="30" r="4"/>
      <circle cx="10" cy="15" r="3.5"/>
    </g>
  </g>

  <!-- Company name -->
  <text x="200" y="285" text-anchor="middle" fill="white" font-family="Inter, system-ui, sans-serif" font-size="42" font-weight="700" letter-spacing="-1">Dat-assist</text>

  <!-- Tagline -->
  <text x="200" y="315" text-anchor="middle" fill="#00A3FF" font-family="Inter, system-ui, sans-serif" font-size="14" font-weight="600" letter-spacing="3" text-transform="uppercase">IT Solutions &amp; Data Services</text>
</svg>
